<svg width="1152" height="1232" viewBox="0 0 1152 1232" fill="none" xmlns="http://www.w3.org/2000/svg">
<path d="M610 509.5C640.5 353.5 520.667 139 352 0H1152V728C976.333 935 537.547 880.081 610 509.5Z" fill="#C1DEE2" fill-opacity="0.4"/>
<path d="M1155 746.5C1098.33 802.833 944.2 901.1 781 843.5C710.333 824.5 565.5 739.5 598 569C628.5 428.5 598 241 363.5 -22.5" stroke="#6AA1AD" stroke-width="2"/>
<path d="M-11.9197 1110.2C-159.307 875.659 -55.0259 726 151.647 726C523.068 726 747.456 870.812 734.465 1023.9C724.183 1145.07 135.468 1344.73 -11.9197 1110.2Z" fill="#F8CB62" fill-opacity="0.19"/>
<path d="M-2.91971 1128.2C-150.307 893.659 -46.0259 744 160.647 744C532.068 744 756.456 888.812 743.465 1041.9C733.183 1163.07 144.468 1362.73 -2.91971 1128.2Z" stroke="#F8CB62" stroke-width="2"/>
</svg>
